<svg xmlns="http://www.w3.org/2000/svg" version="1.1" viewBox="-5.0 -10.0 110.0 135.0">
 <path d="m95.531 45.691-0.55859-3.7891c-0.16016-1.2695-0.57812-2.4805-0.85938-3.7305-1.3516-4.9219-3.5195-9.6211-6.3984-13.84-5.7617-8.4688-14.5-14.801-24.309-17.879-4.8984-1.5898-10.102-2.1406-15.25-2-5.1484 0.17969-10.328 1.1094-15.172 3.0391-9.6797 3.7812-18.18 10.781-23.621 19.891-1.2188 2.1406-2.5312 4.5781-3.3906 7.1797-0.21875 0.64844-0.48828 1.2812-0.66016 1.9297-0.14844 0.66016-0.30078 1.3086-0.44922 1.9609-0.28906 1.2891-0.53906 2.5391-0.55078 3.7383-0.058594 1.1992-0.058594 2.3086 0 3.3086 0.16016 1 0.39062 1.8789 0.67969 2.6016 0.58984 1.4414 1.4688 2.2109 2.7188 2.1289 1.0312-0.058594 1.8086-0.85938 2.4102-2.0703 0.30078-0.60938 0.53125-1.3281 0.76953-2.1211 0.25-0.67187 0.48047-1.4102 0.69141-2.1797 10.93 8.3984 22.719 15.641 32.609 25.441-5.7109 4.1484-11.422 8.2812-17.109 12.449-0.078125 0.058594-0.17969 0.12109-0.26953 0.17969-5.7188-4.3086-10.289-10.141-13.02-16.77-0.48047-1.4219-1.1289-2.9805-1.4414-4.6406-0.19922-0.82031-0.39844-1.6289-0.60156-2.4297-0.12891-0.80859-0.26953-1.5898-0.44141-2.3281-0.39844-1.4688-0.60938-2.8008-1.1016-3.7812-0.48047-0.98047-1.1406-1.6289-2.0703-1.7305-1-0.10938-1.6484 0.42969-2.0508 1.4688-0.19922 0.51172-0.33984 1.1484-0.44141 1.8711-0.10938 0.71875-0.14062 1.5312-0.039062 2.3711 0.14844 1.6992 0.39062 3.6289 0.98047 5.4492 0.26953 0.91016 0.46875 1.8516 0.80078 2.6992 0.32031 0.85938 0.62891 1.6797 0.92188 2.4414 3.6211 9.4883 10.5 17.809 19.391 22.871 4.4102 2.5586 9.2617 4.3711 14.27 5.3516 5.0195 1.0195 10.199 0.96875 15.238 0.25 5.0391-0.76953 9.9883-2.3281 14.48-4.7617 4.4883-2.4297 8.5703-5.6016 12.02-9.3516 3.4414-3.75 6.3086-8.0586 8.3203-12.762 1.9883-4.6992 3.1797-9.7305 3.5391-14.809 0.039063-1.2695 0.19922-2.5508 0.12109-3.8203l-0.19141-3.8203zm-14.18-19.969c1.8984 2.3281 3.5 4.8984 4.7891 7.6094-14.012-0.42969-28.031 0.71875-42.02-1.4297 2.1797-6.7109 4.3711-13.422 6.5195-20.129 0.070313-0.23047 0.19141-0.46875 0.30078-0.71094 2.9609 0.03125 5.9219 0.39844 8.8008 1.0508 8.4688 1.8594 16.129 6.8906 21.609 13.621zm-68.023 12.398c0.73828-2.1914 1.5898-4.3516 2.6016-6.1719 4.1094-7.5312 10.609-13.859 18.5-17.371 3.2891-1.4805 6.7695-2.5 10.34-3.0703-4.6602 13.059-7.8984 26.602-14.199 39.121-5.7109-4.1484-11.41-8.3008-17.129-12.43-0.039062-0.03125-0.070312-0.058594-0.10938-0.089844zm23.719 17.102c1.7383-5.1914 3.1602-10.48 4.6992-15.738 5.4688 0.050781 10.949-0.23828 16.422-0.39062 1.6406 5.2188 3.6094 10.34 5.4492 15.5-4.4609 3.1719-8.7188 6.6289-13.051 9.9688-4.3984-3.2617-8.9883-6.2383-13.52-9.3281zm21.191 33.809c-8.8711 1.7109-18.289 0.41016-26.281-3.8086 11.34-7.7891 21.852-16.738 34.199-23.109 2.1797 6.7109 4.3516 13.422 6.5586 20.121 0.058594 0.17188 0.10156 0.35156 0.14062 0.55078-4.3984 3.0195-9.3789 5.1797-14.621 6.25zm22.922-13.871c-1.1016 1.3516-2.2891 2.6211-3.5508 3.8008-3.9102-13.301-9.2383-26.148-11.5-39.961 7.0508 0 14.109 0.011719 21.172-0.019531 0.32812 0 0.69141 0.058593 1.0586 0.089843 1.0312 3.5 1.6016 7.1289 1.6484 10.789 0.039063 9.1211-3.0312 18.219-8.8281 25.301z"/>
<text x="0.0" y="117.5" font-size="5.0" font-weight="bold" font-family="Arbeit Regular, Helvetica, Arial-Unicode, Arial, Sans-serif" fill="#000000">Created by Gregor Cresnar</text><text x="0.0" y="122.5" font-size="5.0" font-weight="bold" font-family="Arbeit Regular, Helvetica, Arial-Unicode, Arial, Sans-serif" fill="#000000">from Noun Project</text></svg>